<svg id="Capa_1" enable-background="new 0 0 512 512" height="512" viewBox="0 0 512 512" width="512" xmlns="http://www.w3.org/2000/svg"><g><path d="m407.348 143.613c-8.53-11.626-21.154-23.203-36.784-33.422-25.405-16.611-58.919-29.788-96.951-32.226l-17.335-11.759-17.335 12.076c-12.256.785-24.042 2.653-35.24 5.38-23.55 5.735-44.493 15.271-61.711 26.529-15.63 10.22-28.254 21.797-36.784 33.422-26.017 34.004-19.138 70.672 5.033 95.778h146.036 146.036c24.172-25.106 31.052-61.774 5.035-95.778z" fill="#4c5699"/><g><g><path d="m318.833 441.394c-11.591-14.555-28.038-25.017-46.838-28.853-5.171-1.055-10.52-1.609-15.995-1.609-25.38 0-48.053 11.903-62.832 30.462-11.092 13.928-17.74 31.603-17.74 50.817v12.289h80.572 80.572v-12.289c0-6.277-.71-12.39-2.052-18.262-2.766-12.101-8.219-23.177-15.687-32.555z" fill="#ff8e9e"/><path d="m297.081 453.037c8.405-1.938 16.719-4.517 24.747-7.633-.961-1.371-1.955-2.702-2.996-4.01-11.591-14.556-28.038-25.017-46.838-28.853-5.171-1.055-10.52-1.609-15.995-1.609-25.38 0-48.053 11.903-62.832 30.462-1.04 1.306-2.037 2.64-2.998 4.01 8.025 3.114 16.348 5.696 24.75 7.634 26.489 6.106 55.67 6.109 82.162-.001z" fill="#fed2a4"/><path d="m249.091 457.477c-11.598-.422-23.119-1.892-34.171-4.439-8.396-1.936-16.731-4.523-24.75-7.634-1.485 2.124-2.866 4.321-4.151 6.586-6.731 11.868-10.591 25.596-10.591 40.221v12.289h19.179 61.393 3.607l-2.735-9.036c-3.76-12.424-6.361-25.133-7.781-37.987z" fill="#f4698b"/><path d="m249.091 457.477c-.85-7.693-1.278-15.437-1.278-23.203v-22.916c-22.036 2.255-41.476 13.499-54.645 30.037-1.038 1.303-2.041 2.642-2.998 4.01 8.019 3.111 16.354 5.698 24.75 7.634 11.051 2.546 22.573 4.016 34.171 4.438z" fill="#ffbd86"/></g><g><path d="m193.167 441.394c-11.092 13.928-17.74 31.603-17.74 50.817v12.289h51.593c-6.893-22.772-10.396-46.434-10.396-70.226v-12.954c-9.037 5.129-17 11.966-23.457 20.074z" fill="#fc8a3d"/><path d="m318.833 441.394c11.092 13.928 17.74 31.603 17.74 50.817v12.289h-51.593c6.893-22.772 10.396-46.434 10.396-70.226v-12.954c9.037 5.129 17 11.966 23.457 20.074z" fill="#ffb357"/></g><g><path d="m193.333 441.187c.557 21.413 3.695 42.655 9.356 63.313h24.332c-6.893-22.772-10.396-46.434-10.396-70.226v-12.954c-8.963 5.086-16.865 11.848-23.292 19.867z" fill="#7ce3ff"/><path d="m318.668 441.188c-6.428-8.019-14.33-14.781-23.291-19.868v12.954c0 23.792-3.503 47.455-10.396 70.226h24.331c5.66-20.658 8.799-41.9 9.356-63.312z" fill="#b9f0ff"/></g></g><g><path d="m406.748 239.391h-301.496c-20.096 0-36.388 16.291-36.388 36.387s16.291 36.388 36.388 36.388h301.496c20.096 0 36.388-16.291 36.388-36.388s-16.292-36.387-36.388-36.387z" fill="#ffbd86"/><g><path d="m402.314 239.391c-14.318-57.716-61.889-102.323-121.209-112.268-8.165-1.369-16.55-2.093-25.105-2.093s-16.939.724-25.104 2.093c-59.32 9.945-106.904 54.552-121.222 112.268-2.893 11.66-4.422 23.832-4.422 36.387 0 74.702 54.339 136.701 125.644 148.656 8.166 1.369 16.55 2.093 25.104 2.093s16.939-.724 25.105-2.093c71.305-11.955 125.643-73.954 125.643-148.656 0-12.555-1.541-24.727-4.434-36.387z" fill="#fed2a4"/><path d="m155.258 275.988c0-74.834 54.437-136.945 125.847-148.865-8.165-1.369-16.55-2.093-25.105-2.093s-16.939.724-25.104 2.093c-59.32 9.945-106.904 54.552-121.222 112.268-2.893 11.66-4.422 23.832-4.422 36.387 0 74.702 54.339 136.701 125.644 148.656 8.166 1.369 16.55 2.093 25.104 2.093s16.939-.724 25.105-2.093c-71.41-11.92-125.847-73.614-125.847-148.446z" fill="#ffbd86"/></g><g><path d="m281.105 127.123c-8.165-1.369-16.55-2.093-25.105-2.093s-16.939.724-25.104 2.093c-59.32 9.945-106.904 54.552-121.222 112.268h6.131c16.829 0 33.206-4.379 47.62-12.492 7.651-4.307 14.749-9.664 21.065-15.98 14.527-14.527 32.787-24.162 55.051-27.316 5.612-.795 10.324-4.637 12.315-9.944l4.144-11.051 4.144 11.051c1.99 5.308 6.702 9.149 12.315 9.944 22.265 3.154 40.524 12.789 55.051 27.316 18.217 18.216 42.923 28.473 68.685 28.473h6.119c-14.317-57.717-61.889-102.324-121.209-112.269z" fill="#676fb2"/><path d="m281.105 127.123c-8.165-1.369-16.55-2.093-25.105-2.093s-16.939.724-25.104 2.093c-59.32 9.945-106.904 54.552-121.222 112.268h6.131c16.829 0 33.196-4.373 47.61-12.487 17.739-51.623 62.68-90.598 117.69-99.781z" fill="#4c5699"/></g></g><g><g><g><ellipse cx="177" cy="319.127" fill="#ff8e9e" rx="29" ry="23"/></g><g><ellipse cx="335" cy="319.127" fill="#ff8e9e" rx="29" ry="23"/></g></g></g><g><path d="m221.921 53.258c-.566-4.841-2.714-9.532-6.428-13.246-3.229-3.229-14.945-8.682-25.13-13.051-6.159-2.642-12.393 3.588-9.752 9.747.039.091.079.183.118.275-.092-.039-.183-.079-.275-.118-6.159-2.642-12.389 3.593-9.747 9.752 4.369 10.185 9.822 21.902 13.051 25.13 6.488 6.488 15.973 8.201 24.011 5.081l48.231 30.528 17.613-29.392z" fill="#f4698b"/><g fill="#ff8e9e"><path d="m222.731 74.088c-5.27 0-10.323.953-14.963 2.741-15.58 6.005-26.623 21.148-26.623 38.845 0 2.742.332 5.406.957 7.955 3.566 14.532 16.68 25.314 32.312 25.314 22.967 0 41.586-18.619 41.586-41.586 0-12.491-6.876-23.387-17.057-29.075-4.795-2.68-10.328-4.194-16.212-4.194z"/><path d="m297.586 148.942c-22.967 0-41.586-18.619-41.586-41.586 0-12.722 7.121-23.795 17.613-29.392 4.661-2.486 10.004-3.877 15.656-3.877 22.967 0 41.586 18.619 41.586 41.586 0 2.741-.331 5.404-.956 7.952-3.566 14.534-16.68 25.317-32.313 25.317"/><path d="m296.524 40.769c0 16.26-9.311 30.359-22.911 37.196-5.61 2.82-11.967 4.39-18.674 4.39-5.795 0-11.251-1.468-15.995-4.073-9.142-5.02-15.673-14.221-17.022-25.023-.171-1.367-.251-2.759-.251-4.172 0-22.967 18.619-41.586 41.586-41.586 18.373-.001 33.267 14.894 33.267 33.268"/></g><path d="m126.791 104.903c.053.124.106.248.16.373-.124-.053-.249-.107-.373-.16-8.347-3.58-16.789 4.869-13.209 13.215 5.92 13.803 13.311 29.68 17.686 34.056 11.876 11.876 31.131 11.876 43.007 0 7.797-7.797 10.481-18.776 8.04-28.758-1.277-5.222-3.961-10.169-8.04-14.248-4.376-4.376-20.253-11.766-34.056-17.686-8.346-3.581-16.795 4.861-13.215 13.208z" fill="#f4698b"/><path d="m370.682 109.915c-.039.092-.079.183-.118.275.092-.039.183-.079.275-.118 6.159-2.642 12.389 3.593 9.747 9.752-4.369 10.185-9.822 21.902-13.051 25.131-8.763 8.763-22.972 8.763-31.735 0-5.782-5.782-7.749-13.934-5.902-21.329.953-3.813 2.92-7.425 5.902-10.406 3.229-3.229 14.945-8.682 25.13-13.051 6.159-2.642 12.393 3.587 9.752 9.746z" fill="#f4698b"/></g><g><path d="m186.051 285v12c0 4.142 3.358 7.5 7.5 7.5s7.5-3.358 7.5-7.5v-12c0-4.142-3.358-7.5-7.5-7.5s-7.5 3.358-7.5 7.5z"/><path d="m310.949 285v12c0 4.142 3.358 7.5 7.5 7.5s7.5-3.358 7.5-7.5v-12c0-4.142-3.358-7.5-7.5-7.5s-7.5 3.358-7.5 7.5z"/><path d="m256 311.644c8.478 0 16.54-3.671 22.119-10.073 2.721-3.123 2.396-7.86-.727-10.582-3.123-2.721-7.861-2.396-10.582.727-2.729 3.132-6.669 4.929-10.81 4.929s-8.081-1.796-10.81-4.929c-2.721-3.123-7.459-3.447-10.582-.727-3.123 2.722-3.448 7.459-.727 10.582 5.579 6.401 13.641 10.073 22.119 10.073z"/><path d="m417.177 233.153c10.556-15.035 15.394-31.806 14.065-49.187-1.929-25.219-16.736-49.429-42.877-70.183-1.149-5.382-5.159-9.609-10.226-11.171-2.379-7.725-10.987-13.296-21.068-8.948-11.091-5.756-22.758-10.542-34.761-14.257-7.061-6.439-16.003-10.844-25.894-12.293 4.887-7.706 7.607-16.779 7.607-26.346.001-22.479-18.106-40.768-40.767-40.768-21.028 0-39.004 13.295-45.981 31.918-3.667-2.442-10.416-6.041-23.956-11.849-5.642-2.42-12.095-1.178-16.438 3.164-1.772 1.772-3.028 3.897-3.729 6.174-8.318 2.562-12.91 11.838-9.338 20.167 9.754 22.741 13.239 27.666 20.391 31.97-8.698 2.94-17.169 6.426-25.291 10.419-4.33-2.058-9.568-4.424-15.951-7.161-10.36-4.443-21.795 1.86-24.098 12.388-10.526 2.303-16.833 13.734-12.388 24.098.932 2.172 1.816 4.199 2.664 6.117-31.993 33.295-37.073 73.144-14.293 105.744-19.193 4.685-33.485 22.016-33.485 42.631 0 23.767 18.993 43.168 42.596 43.855 13.818 47.907 49.374 86.465 96.003 104.153-5.991 4.993-11.328 10.747-15.885 17.242-2.38 3.39-1.561 8.068 1.83 10.447 3.387 2.379 8.067 1.561 10.447-1.83 3.529-5.025 7.787-9.762 12.78-13.988.111 20.123 2.656 40.765 7.995 61.343h-34.203v-4.789c0-6.066.734-12.099 2.183-17.931.999-4.02-1.451-8.088-5.471-9.086-4.018-1-8.088 1.451-9.086 5.471-1.742 7.014-2.625 14.263-2.625 21.546v12.287c0 4.142 3.358 7.5 7.5 7.5h161.145c4.143 0 7.5-3.358 7.5-7.5v-12.289c0-6.726-.754-13.432-2.24-19.933-4.225-18.481-14.467-35.727-29.82-48.507 13.675-5.184 26.653-12.246 38.408-20.997 3.322-2.474 4.011-7.172 1.537-10.495-2.472-3.323-7.172-4.011-10.494-1.538-23.795 17.715-53.496 28.276-85.464 28.276-79.463 0-143.248-63.891-143.248-143.239 0-9.744.993-19.432 2.928-28.888h.125c27.2 0 54.013-10.694 73.988-30.67 13.913-13.913 31.005-22.389 50.8-25.193 6.269-.888 11.796-4.319 15.407-9.347 3.611 5.028 9.138 8.459 15.407 9.347 19.795 2.804 36.887 11.28 50.8 25.193 19.778 19.777 46.054 30.669 73.989 30.669h.114c1.942 9.477 2.939 19.166 2.939 28.888-.001 35.45-13.051 69.47-36.746 95.792-2.771 3.079-2.522 7.821.557 10.592 3.078 2.771 7.821 2.522 10.592-.556 16.166-17.958 27.84-39.161 34.411-61.974 23.594-.699 42.574-20.095 42.574-43.854 0-20.605-14.278-37.93-33.459-42.624zm-137.839 263.847h-46.675c-3.117-11.246-5.386-22.686-6.797-34.239 9.865 1.544 20.001 2.319 30.137 2.319 10.135 0 20.27-.775 30.133-2.319-1.412 11.553-3.681 22.993-6.798 34.239zm23.526-61.338c12.671 10.718 20.929 25.018 24.345 39.96 1.236 5.406 1.863 10.987 1.863 16.589v4.789h-34.203c5.064-19.519 7.877-40.125 7.995-61.338zm-78.74-4.87c10.534 2.159 21.19 3.235 31.876 3.235 10.629 0 21.273-1.062 31.876-3.239 0 4.276.042 9.239-.362 16.524-20.518 3.685-42.505 3.686-63.028 0-.403-7.26-.362-12.198-.362-16.52zm139.587-323.652-.022.052c-2.715 6.226 3.618 12.568 9.843 9.886l.087-.036c-8.163 19.008-11.082 22.298-11.386 22.609-10.711 10.709-28.711.416-25.058-14.208 0-.001 0-.001 0-.002.651-2.608 2.01-5 3.926-6.917.313-.306 3.599-3.221 22.61-11.384zm-24.138-5.27c-1.031.549-1.951 1.06-2.771 1.535-.274-1.06-.594-2.1-.936-3.13 1.241.52 2.478 1.049 3.707 1.595zm-16.219 13.803c0 14.229-11.449 25.769-25.769 25.769-10.54 0-19.115-8.575-19.115-19.115 0-7.605 6.187-13.792 13.792-13.792 5.257 0 9.534 4.277 9.534 9.534 0 4.142 3.358 7.5 7.5 7.5s7.5-3.358 7.5-7.5c0-13.528-11.006-24.534-24.534-24.534-13.375 0-24.648 9.168-27.868 21.55-.579-2.485-.895-5.07-.895-7.728 0-14.116 11.314-25.769 25.769-25.769 18.795 0 34.086 15.29 34.086 34.085zm-60.098-100.673c14.209 0 25.769 11.56 25.769 25.769 0 10.54-8.575 19.115-19.115 19.115-7.605 0-13.792-6.187-13.792-13.792 0-5.257 4.277-9.534 9.534-9.534 4.142 0 7.5-3.358 7.5-7.5s-3.358-7.5-7.5-7.5c-13.528 0-24.534 11.006-24.534 24.534 0 13.397 9.198 24.686 21.611 27.885-19.639 4.533-33.558-9.427-33.558-24.891-.001-18.795 15.29-34.086 34.085-34.086zm-14.756 92.356c0 18.795-15.291 34.085-34.086 34.085-14.341 0-25.769-11.561-25.769-25.769 0-10.54 8.575-19.115 19.115-19.115 7.604 0 13.792 6.187 13.792 13.792 0 5.257-4.276 9.534-9.533 9.534-4.142 0-7.5 3.358-7.5 7.5s3.358 7.5 7.5 7.5c13.528 0 24.533-11.006 24.533-24.534 0-13.402-9.205-24.695-21.624-27.888 19.594-4.512 33.572 9.382 33.572 24.895zm-70.822-63.521.083.036c6.217 2.679 12.533-3.642 9.855-9.855l-.037-.087c19.009 8.163 22.298 11.082 22.61 11.387 5.851 5.851 5.85 15.279 0 21.129-6.108 6.108-15.502 5.626-21.127.001-.305-.313-3.221-3.599-11.384-22.611zm-53.707 68.323c6.205 2.69 12.536-3.61 9.877-9.83-1.218-2.839 1.24-4.582 3.203-3.741 26.021 11.161 30.979 15.367 31.709 16.098 8.84 8.839 9.105 23.294 0 32.399-8.953 8.953-23.446 8.954-32.4 0-.73-.73-4.937-5.69-16.097-31.709-.845-1.971.917-4.415 3.708-3.217zm-47.607 163.62c0-14.244 10.365-26.104 23.947-28.456-1.697 9.348-2.559 18.881-2.559 28.456 0 9.601.879 19.124 2.587 28.461-13.595-2.34-23.975-14.207-23.975-28.461zm30.174-52.122c-16.95-25.167-13.573-54.939 9.483-81.53 5.623 11.207 10.637 20.332 25.049 24.896-15.47 16.279-27.181 35.478-34.532 56.634zm226.275-18.041c-16.265-16.264-36.217-26.168-59.303-29.438-2.874-.407-5.305-2.381-6.344-5.152l-4.144-11.05c-2.427-6.471-11.618-6.473-14.045 0l-4.144 11.05c-1.039 2.771-3.47 4.745-6.344 5.152-23.087 3.27-43.039 13.175-59.303 29.438-16.009 16.008-37.309 25.22-59.54 26.183 7.997-24.885 22.581-46.92 42.597-64.254 11.359-2.98 20.474-11.064 25.044-21.403 20.706 18.428 53.809 10.968 68.712-12.753 15.452 24.596 49.916 31.308 70.188 11.375 4.376 7.15 11.58 12.221 20.035 13.766-.864 2.786-.05 5.943 2.316 7.948 20.643 17.489 35.641 39.928 43.802 65.321-22.481-.948-43.496-10.152-59.527-26.183zm72.647 18.069c-8.837-25.445-23.974-48.061-44.371-66.171 13.054-4.312 17.16-14.115 23.243-27.574 19.478 16.985 30.481 35.911 31.954 55.171 1.03 13.477-2.699 26.609-10.826 38.574zm6.214 80.553c1.699-9.323 2.574-18.842 2.574-28.458 0-9.559-.865-19.092-2.569-28.458 13.587 2.348 23.956 14.211 23.956 28.457.001 14.249-10.372 26.113-23.961 28.459z"/><path d="m242.092 271.985c4.142 0 7.5-3.358 7.5-7.5s-3.358-7.5-7.5-7.5c-13.823 0-22.792-2.403-35.477-7.134-14.389-5.367-30.268-1.279-40.391 9.5-2.835 3.02-2.687 7.766.333 10.602 3.021 2.837 7.767 2.685 10.602-.333 6.49-6.911 16.086-8.746 24.213-5.715 14.048 5.24 24.698 8.08 40.72 8.08z"/><path d="m334.84 269.619c2.836 3.02 7.583 3.169 10.602.334 3.02-2.835 3.169-7.582.334-10.602-10.124-10.782-26.004-14.866-40.391-9.5-13.486 5.031-21.257 7.134-34.477 7.134-4.142 0-7.5 3.358-7.5 7.5s3.358 7.5 7.5 7.5c15.452 0 24.741-2.493 39.719-8.081 8.105-3.022 17.702-1.218 24.213 5.715z"/></g></g></svg>